<?xml version="1.0" encoding="UTF-8"?>
<svg width="24px" height="24px" viewBox="0 0 24 24" version="1.1" xmlns="http://www.w3.org/2000/svg" xmlns:xlink="http://www.w3.org/1999/xlink">
    <!-- Generator: Sketch 60 (88103) - https://sketch.com -->
    <title>iconmonstr-rocket-20</title>
    <desc>Created with Sketch.</desc>
    <g id="Page-1" stroke="none" stroke-width="1" fill="none" fill-rule="evenodd">
        <g id="iconmonstr-rocket-20" fill="#000000" fill-rule="nonzero">
            <path d="M8.566,17.842 C7.621,20.304 4.888,21.854 2.003,22.003 C2.142,19.231 3.687,16.395 6.212,15.44 L6.722,15.961 C5.188,17.484 4.661,18.726 4.578,19.422 C5.282,19.337 6.584,18.814 8.061,17.326 L8.566,17.842 Z M7.43,6.5 C5.652,6.49 3.368,7.411 1.664,9.114 C1.014,9.763 0.442,10.522 6.66133815e-16,11.372 C1.538,10.209 3.228,9.887 5.147,10.964 C5.713,9.47 6.467,7.95 7.43,6.5 L7.43,6.5 Z M12.634,24 C13.486,23.56 14.244,22.987 14.895,22.336 C16.603,20.63 17.517,18.335 17.499,16.554 C15.924,17.584 14.374,18.326 13.033,18.85 C14.11,20.77 13.797,22.464 12.634,24 L12.634,24 Z M23.946,0.044 C23.518,0.014 23.098,4.85722573e-16 22.685,4.85722573e-16 C13.347,4.85722573e-16 8.22,7.426 6.584,13.009 L11.012,17.437 C16.792,15.582 24,10.66 24,1.444 L24,1.385 C23.998,0.948 23.981,0.501 23.946,0.044 L23.946,0.044 Z M18,8 C16.895,8 16,7.105 16,6 C16,4.895 16.895,4 18,4 C19.105,4 20,4.895 20,6 C20,7.105 19.105,8 18,8 Z" id="Shape"></path>
        </g>
    </g>
</svg>